<svg width="810" height="402" viewBox="0 0 810 402" fill="none" xmlns="http://www.w3.org/2000/svg">
<mask id="mask0" mask-type="alpha" maskUnits="userSpaceOnUse" x="0" y="0" width="810" height="402">
<rect width="810" height="402" transform="matrix(1 0 0 -1 0 402)" fill="#C4C4C4"/>
</mask>
<g mask="url(#mask0)">
<path d="M778.861 595.426C778.861 702.734 611.794 789.724 405.706 789.724C199.618 789.724 32.5508 702.734 32.5508 595.426C32.5508 488.118 199.618 401.127 405.706 401.127C611.794 401.127 778.861 488.118 778.861 595.426Z" fill="url(#paint0_radial)"/>
<path d="M334.263 309.256C350.526 321.08 361.232 341.222 361.232 364.122C361.232 383.388 353.634 400.699 341.546 412.765C341.443 412.867 341.34 412.972 341.237 413.074C341.211 413.16 341.115 413.283 340.928 413.427C337.808 416.966 332.58 421.022 325.876 425.654C348.908 418.448 376.303 414.222 405.725 414.222C408.577 414.222 411.388 414.277 414.2 414.354C416.794 414.426 419.369 414.483 421.925 414.619C422.13 414.633 422.338 414.652 422.543 414.663C423 414.688 423.455 414.724 423.911 414.751C426.07 414.879 428.227 415.018 430.356 415.192C430.487 415.206 430.621 415.226 430.753 415.236C431.107 415.265 431.459 415.293 431.812 415.323C433.782 415.494 435.741 415.689 437.683 415.897C438.062 415.938 438.452 415.988 438.831 416.03C439.243 416.076 439.656 416.115 440.066 416.163C441.606 416.341 443.137 416.535 444.657 416.736C445.993 416.912 447.309 417.117 448.63 417.31C448.979 417.361 449.34 417.389 449.689 417.443C451.276 417.682 452.848 417.929 454.412 418.193C454.603 418.226 454.795 418.249 454.986 418.281C456.16 418.483 457.312 418.727 458.473 418.943C462.138 419.623 465.769 420.334 469.287 421.15C469.29 421.151 469.284 421.194 469.287 421.194C474.223 422.339 478.974 423.596 483.589 424.99C483.666 424.936 483.74 424.869 483.809 424.813C478.516 421.231 473.929 417.662 470.038 414.264C469.786 414.078 469.591 413.956 469.464 413.822C469.426 413.788 469.413 413.724 469.375 413.69C469.348 413.649 469.296 413.589 469.287 413.557C456.735 401.464 448.806 383.807 448.806 364.12C448.806 341.22 459.512 321.078 475.776 309.254C452.796 310.812 429.161 311.637 405.019 311.637C380.893 311.637 357.229 310.81 334.263 309.254V309.256Z" fill="url(#paint1_radial)"/>
<path d="M810 155.82C810 241.876 628.675 311.639 405 311.639C181.325 311.639 0 241.876 0 155.82C0 69.7628 181.325 0 405 0C628.675 0 810 69.7628 810 155.82Z" fill="url(#paint2_linear)" stroke="#637EA1" stroke-width="0.6" stroke-linecap="round" stroke-linejoin="round"/>
<path opacity="0.6" d="M467.091 417.323C467.091 425.386 460.571 433.119 448.965 438.821C437.359 444.522 421.617 447.725 405.204 447.725C388.791 447.725 373.05 444.522 361.444 438.821C349.838 433.119 343.317 425.386 343.317 417.323C343.317 409.26 349.838 401.527 361.444 395.826C373.05 390.124 388.791 386.921 405.204 386.921C421.617 386.921 437.359 390.124 448.965 395.826C460.571 401.527 467.091 409.26 467.091 417.323Z" fill="#C2CBFB"/>
<path opacity="0.8" d="M584.032 111.219C554.374 112.012 517.928 125.798 482.289 152.048C425.441 193.921 388.281 254.628 387.741 300.757C393.399 300.902 399.253 300.998 405.486 301.021C445.272 301.171 491.116 297.064 510.583 288.53C538.185 276.43 545.982 275.938 560.329 270.079C565.648 267.907 587.115 263.206 615.195 258.382C644.136 217.505 656.337 173.879 643.533 143.838C634.247 122.051 613.466 111.258 586.857 111.219C585.915 111.217 584.989 111.193 584.032 111.219ZM583.017 295.769C580.077 296.324 577.125 296.918 574.145 297.446C577.102 296.922 580.011 296.407 582.929 295.857C582.959 295.828 582.987 295.798 583.017 295.769ZM527.533 304.376C523.998 304.808 520.428 305.217 516.851 305.612C520.431 305.217 523.994 304.808 527.533 304.376ZM516.851 305.612C508.958 306.484 500.966 307.263 492.883 307.951C500.963 307.264 508.961 306.482 516.851 305.612ZM492.883 307.951C489.266 308.26 485.633 308.563 481.98 308.834C485.636 308.564 489.263 308.259 492.883 307.951ZM479.42 309.011C476.782 309.199 474.131 309.371 471.475 309.54C474.13 309.372 476.783 309.199 479.42 309.011ZM388.271 311.483C388.273 311.497 388.269 311.512 388.271 311.527C390.409 311.561 392.57 311.55 394.715 311.571C392.567 311.55 390.411 311.516 388.271 311.483Z" fill="url(#paint3_radial)" stroke="url(#paint4_radial)"/>
<g opacity="0.8" filter="url(#filter0_f)">
<path d="M309.832 547.073C246.66 579.508 182.559 582.771 163.41 555.528C145.48 530.018 203.272 518.134 258.236 476.775C313.2 435.415 338.902 415.695 370.118 413.768C392.148 412.408 411.275 405.052 420.876 416.533C447.176 447.983 383.025 509.494 309.832 547.073Z" fill="url(#paint5_radial)"/>
<path d="M309.832 547.073C246.66 579.508 182.559 582.771 163.41 555.528C145.48 530.018 203.272 518.134 258.236 476.775C313.2 435.415 338.902 415.695 370.118 413.768C392.148 412.408 411.275 405.052 420.876 416.533C447.176 447.983 383.025 509.494 309.832 547.073Z" stroke="url(#paint6_radial)" stroke-width="1.58905"/>
</g>
<g opacity="0.8" filter="url(#filter1_f)">
<path d="M369.305 296.477C375.027 291.131 393.372 300.175 403.1 297.501C397.199 250.102 327.415 133.069 288.403 58.8899C237.32 67.4213 134.481 101.646 106.629 165.394C199.737 194.001 261.095 229.599 369.305 296.477Z" fill="url(#paint7_linear)"/>
<path d="M369.305 296.477C375.027 291.131 393.372 300.175 403.1 297.501C397.199 250.102 327.415 133.069 288.403 58.8899C237.32 67.4213 134.481 101.646 106.629 165.394C199.737 194.001 261.095 229.599 369.305 296.477Z" stroke="url(#paint8_radial)"/>
</g>
<g opacity="0.8" filter="url(#filter2_f)">
<path d="M423.098 418.639C432.732 417.652 456.403 420.35 462.535 417.283C505.729 466.108 695.435 550.109 726.985 541.896C738.909 594.306 722.142 675.488 570.572 718.584C536.197 639.184 442.676 517.68 423.098 418.639Z" fill="url(#paint9_linear)"/>
<path d="M423.098 418.639C432.732 417.652 456.403 420.35 462.535 417.283C505.729 466.108 695.435 550.109 726.985 541.896C738.909 594.306 722.142 675.488 570.572 718.584C536.197 639.184 442.676 517.68 423.098 418.639Z" stroke="url(#paint10_radial)"/>
</g>
<path d="M737.88 244.547C670.438 246.464 572.575 265.092 560.318 270.097C545.972 275.957 538.164 276.413 510.562 288.513C491.095 297.047 445.292 301.152 405.505 301.003C345.519 300.777 312.542 294.538 298.907 289.217C295.969 288.071 278.206 281.368 265.405 278.933C222.822 270.832 161.807 265.262 121.508 267.059" stroke="#637EA1" stroke-width="0.6" stroke-linecap="round" stroke-linejoin="round"/>
<path d="M265.363 302.131C281.341 298.196 317.645 294.274 317.645 294.274" stroke="#637EA1" stroke-width="0.6" stroke-linecap="round" stroke-linejoin="round"/>
<path d="M605.936 291.14C556.719 285.751 516.225 287.032 516.225 287.032" stroke="#637EA1" stroke-width="0.6"/>
<path d="M438.679 311.104C435.477 307.281 432.704 303.886 429.965 300.526" stroke="#637EA1" stroke-width="0.6" stroke-linecap="round" stroke-linejoin="round"/>
<path opacity="0.6" d="M343.316 417.322C343.316 400.531 371.024 386.92 405.203 386.92C439.382 386.92 467.09 400.531 467.09 417.322" stroke="#534C72" stroke-width="0.6" stroke-linecap="round" stroke-linejoin="round"/>
<path d="M469.192 308.742C469.192 324.899 440.677 337.996 405.503 337.996C370.329 337.996 341.814 324.899 341.814 308.742" stroke="#534C72" stroke-width="0.6" stroke-linecap="round" stroke-linejoin="round"/>
<path d="M400.078 387.024C401.353 356.37 401.009 333.826 400.134 311.789" stroke="#534C72" stroke-width="0.6" stroke-linejoin="round"/>
<path d="M421.572 387.995C419.16 369.23 417.151 343.042 420.719 311.524" stroke="#534C72" stroke-width="0.6" stroke-linejoin="round"/>
<path d="M375.941 390.527C386.163 371.142 385.699 336.377 382.439 311.402" stroke="#534C72" stroke-width="0.6" stroke-linejoin="round"/>
<path d="M357.143 398.167C368.046 385.507 377.272 350.839 363.368 310.825" stroke="#534C72" stroke-width="0.6" stroke-linejoin="round"/>
<path d="M438.919 391.824C433.89 366.891 428.427 340.572 437.751 311.138" stroke="#534C72" stroke-width="0.6" stroke-linejoin="round"/>
<path d="M786.943 162.105C786.943 244.69 615.941 311.639 405 311.639C194.058 311.639 23.0566 244.69 23.0566 162.105C23.0566 79.5191 194.058 12.5703 405 12.5703C615.941 12.5703 786.943 79.5191 786.943 162.105Z" stroke="#6A84A7" stroke-width="0.6" stroke-linecap="round" stroke-linejoin="round"/>
<path d="M764.01 167.384C764.01 245.11 603.275 308.119 404.999 308.119C206.723 308.119 45.9883 245.11 45.9883 167.384C45.9883 89.6587 206.723 26.6497 404.999 26.6497C603.275 26.6497 764.01 89.6587 764.01 167.384Z" stroke="#637EA1" stroke-width="0.6" stroke-linecap="round" stroke-linejoin="round"/>
<path d="M740.191 173.418C740.191 246.422 590.121 305.604 405 305.604C219.878 305.604 69.8076 246.422 69.8076 173.418C69.8076 100.413 219.878 41.2311 405 41.2311C590.121 41.2311 740.191 100.413 740.191 173.418Z" stroke="#627C9F" stroke-width="0.6" stroke-linecap="round" stroke-linejoin="round"/>
<path d="M717.267 180.206C717.267 248.907 577.46 304.599 405 304.599C232.539 304.599 92.7324 248.907 92.7324 180.206C92.7324 111.506 232.539 55.8138 405 55.8138C577.46 55.8138 717.267 111.506 717.267 180.206Z" stroke="#627A9D" stroke-width="0.6" stroke-linecap="round" stroke-linejoin="round"/>
<path d="M694.784 187.247C694.784 251.226 565.043 303.091 404.999 303.091C244.956 303.091 115.215 251.226 115.215 187.247C115.215 123.268 244.956 71.4022 404.999 71.4022C565.043 71.4022 694.784 123.268 694.784 187.247Z" stroke="#61779B" stroke-width="0.6" stroke-linecap="round" stroke-linejoin="round"/>
<path d="M671.751 195.292C671.751 254.828 552.322 303.091 405 303.091C257.677 303.091 138.248 254.828 138.248 195.292C138.248 135.756 257.677 87.4927 405 87.4927C552.322 87.4927 671.751 135.756 671.751 195.292Z" stroke="#607598" stroke-width="0.6" stroke-linecap="round" stroke-linejoin="round"/>
<path d="M649.444 202.834C649.444 257.649 540.002 302.085 404.999 302.085C269.996 302.085 160.555 257.649 160.555 202.834C160.555 148.019 269.996 103.583 404.999 103.583C540.002 103.583 649.444 148.019 649.444 202.834Z" stroke="#5F7497" stroke-width="0.6" stroke-linecap="round" stroke-linejoin="round"/>
<path d="M627.907 211.633C627.907 261.588 528.221 302.084 405.251 302.084C282.281 302.084 182.594 261.588 182.594 211.633C182.594 161.678 282.281 121.181 405.251 121.181C528.221 121.181 627.907 161.678 627.907 211.633Z" stroke="#5E7093" stroke-width="0.6" stroke-linecap="round" stroke-linejoin="round"/>
<path d="M605.756 220.685C605.756 265.641 516.1 302.085 405.503 302.085C294.906 302.085 205.249 265.641 205.249 220.685C205.249 175.728 294.906 139.284 405.503 139.284C516.1 139.284 605.756 175.728 605.756 220.685Z" stroke="#5F7195" stroke-width="0.6" stroke-linecap="round" stroke-linejoin="round"/>
<path d="M583.046 231.408C583.046 272.012 503.557 304.929 405.502 304.929C307.448 304.929 227.959 272.012 227.959 231.408C227.959 190.804 307.448 157.888 405.502 157.888C503.557 157.888 583.046 190.804 583.046 231.408Z" stroke="#5D6A8E" stroke-width="0.6" stroke-linecap="round" stroke-linejoin="round"/>
<path d="M560.598 241.898C560.598 277.495 491.159 306.352 405.503 306.352C319.846 306.352 250.408 277.495 250.408 241.898C250.408 206.302 319.846 177.445 405.503 177.445C491.159 177.445 560.598 206.302 560.598 241.898Z" stroke="#5C688C" stroke-width="0.6" stroke-linecap="round" stroke-linejoin="round"/>
<path d="M538.372 254.697C538.372 285.581 478.884 310.618 405.502 310.618C332.12 310.618 272.632 285.581 272.632 254.697C272.632 223.813 332.12 198.777 405.502 198.777C478.884 198.777 538.372 223.813 538.372 254.697Z" stroke="#5B6488" stroke-width="0.6" stroke-linecap="round" stroke-linejoin="round"/>
<path d="M516.837 268.92C516.837 294.699 466.991 315.596 405.502 315.596C344.013 315.596 294.166 294.699 294.166 268.92C294.166 243.142 344.013 222.244 405.502 222.244C466.991 222.244 516.837 243.142 516.837 268.92Z" stroke="#5A6185" stroke-width="0.6" stroke-linecap="round" stroke-linejoin="round"/>
<path d="M494.751 285.986C494.751 306.659 454.793 323.418 405.502 323.418C356.211 323.418 316.253 306.659 316.253 285.986C316.253 265.313 356.211 248.554 405.502 248.554C454.793 248.554 494.751 265.313 494.751 285.986Z" stroke="#585D82" stroke-width="0.6" stroke-linecap="round" stroke-linejoin="round"/>
<path d="M341.813 308.742C341.813 292.586 370.328 279.488 405.502 279.488C440.676 279.488 469.191 292.586 469.191 308.742" stroke="#57587D" stroke-width="0.6" stroke-linecap="round" stroke-linejoin="round"/>
<path d="M758.14 585.795C758.14 687.229 600.35 769.457 405.706 769.457C211.063 769.457 53.2734 687.229 53.2734 585.795C53.2734 484.361 211.063 402.133 405.706 402.133C600.35 402.133 758.14 484.361 758.14 585.795V585.795Z" stroke="#637EA1" stroke-width="0.6" stroke-linecap="round" stroke-linejoin="round"/>
<path d="M490.222 439.321C490.222 462.291 452.158 480.911 405.203 480.911C358.249 480.911 320.185 462.291 320.185 439.321C320.185 416.352 358.249 397.731 405.203 397.731C452.158 397.731 490.222 416.352 490.222 439.321V439.321Z" stroke="#595D82" stroke-width="0.6" stroke-linecap="round" stroke-linejoin="round"/>
<path d="M758.14 585.795C758.14 687.229 600.35 769.457 405.706 769.457C211.063 769.457 53.2734 687.229 53.2734 585.795C53.2734 484.361 211.063 402.133 405.706 402.133C600.35 402.133 758.14 484.361 758.14 585.795V585.795Z" stroke="#637EA1" stroke-width="0.6" stroke-linecap="round" stroke-linejoin="round"/>
<path d="M778.861 595.426C778.861 702.734 611.794 789.724 405.706 789.724C199.618 789.724 32.5508 702.734 32.5508 595.426C32.5508 488.118 199.618 401.127 405.706 401.127C611.794 401.127 778.861 488.118 778.861 595.426V595.426Z" stroke="#567DAE" stroke-width="0.6" stroke-linecap="round" stroke-linejoin="round"/>
<path d="M27.4648 212.34C206.884 235.551 281.839 274.289 308.626 292.251" stroke="url(#paint11_radial)" stroke-width="0.6" stroke-linecap="round" stroke-linejoin="round"/>
<path d="M0.336914 149.402C223.341 214.659 298.379 268.308 322.645 295.196" stroke="url(#paint12_radial)" stroke-width="0.6" stroke-linejoin="round"/>
<path d="M37.1338 90.5505C190.648 165.517 301.324 237.168 339.55 297.598" stroke="url(#paint13_radial)" stroke-width="0.6" stroke-linejoin="round"/>
<path d="M122.696 44.093C257.852 150.659 337.527 244.45 359.562 299.432" stroke="url(#paint14_radial)" stroke-width="0.6" stroke-linejoin="round"/>
<path d="M241.484 13.2212C296.794 102.058 361.648 217.055 379.554 300.491" stroke="url(#paint15_radial)" stroke-width="0.6" stroke-linejoin="round"/>
<path d="M461.384 298.108C502.529 215.768 671.888 110.225 742.054 69.399" stroke="url(#paint16_radial)" stroke-width="0.6" stroke-linejoin="round"/>
<path d="M479.158 296.269C534.45 223.902 725.573 151.476 801.105 123.189" stroke="url(#paint17_radial)" stroke-width="0.6" stroke-linejoin="round"/>
<path d="M442.411 299.824C470.795 205.204 592.649 78.5776 640.95 29.1599" stroke="url(#paint18_radial)" stroke-width="0.6" stroke-linejoin="round"/>
<path d="M514.674 5.78076C445.383 164.228 422.35 279.479 421.12 300.832" stroke="url(#paint19_radial)" stroke-width="0.6" stroke-linejoin="round"/>
<path d="M399.923 300.963C392.936 136.581 378.269 27.6334 376.11 0.390137" stroke="url(#paint20_radial)" stroke-width="0.6" stroke-linejoin="round"/>
<path d="M591.556 763.949C559.237 709.04 431.046 502.585 424.279 391.382C422.404 360.569 430.209 333.079 452.538 310.576" stroke="url(#paint21_radial)" stroke-width="0.6" stroke-linejoin="round"/>
<path d="M709.856 708.02C572.267 594.844 462.056 483.877 443.159 408.985C432.007 364.787 442.527 329.755 475.776 309.256" stroke="url(#paint22_radial)" stroke-width="0.6" stroke-linejoin="round"/>
<path d="M141.817 733.689C232.944 635.892 374.928 479.792 374.928 382.155C374.928 345.133 363.925 330.156 337.005 309.452" stroke="url(#paint23_radial)" stroke-width="0.6" stroke-linejoin="round"/>
<path d="M57.5361 665.471C125.46 623.997 308.18 514.113 353.128 418.683C363.345 396.991 364.372 373.075 359.498 348.382" stroke="url(#paint24_radial)" stroke-width="0.6" stroke-linecap="round" stroke-linejoin="round"/>
<path d="M32.7949 588.339C121.594 557.854 229.79 510.918 282.887 471.994C323.669 442.099 349.651 415.029 350.256 401.971" stroke="url(#paint25_radial)" stroke-width="0.6" stroke-linecap="round" stroke-linejoin="round"/>
<path d="M437.26 789.039C424.463 659.784 407.672 472.597 407.672 389.434C408.156 365.92 406.826 333.532 414.749 311.594" stroke="url(#paint26_radial)" stroke-width="0.6" stroke-linejoin="round"/>
<path d="M276.261 777.715C326.562 649.665 390.594 483.071 390.594 382.738C390.594 353.632 385.18 328.989 368.485 310.924" stroke="url(#paint27_radial)" stroke-width="0.6" stroke-linejoin="round"/>
<path opacity="0.5" d="M334.263 309.257C350.526 321.081 361.232 341.223 361.232 364.123C361.232 383.389 353.634 400.7 341.546 412.766C341.443 412.868 341.34 412.973 341.237 413.075C341.211 413.161 341.115 413.283 340.928 413.428C337.808 416.967 332.58 421.023 325.876 425.655C348.908 418.449 376.303 414.222 405.725 414.222C408.577 414.222 411.388 414.277 414.2 414.355C416.794 414.426 419.369 414.484 421.925 414.619C422.13 414.631 422.338 414.653 422.543 414.664C423 414.689 423.455 414.725 423.911 414.752C426.07 414.881 428.227 415.02 430.356 415.193C430.487 415.205 430.621 415.227 430.753 415.237C431.107 415.267 431.459 415.295 431.812 415.326C433.782 415.496 435.741 415.691 437.683 415.899C438.062 415.94 438.452 415.99 438.831 416.032C439.243 416.078 439.656 416.117 440.066 416.164C441.606 416.342 443.137 416.537 444.657 416.738C445.993 416.914 447.309 417.118 448.63 417.312C448.98 417.363 449.34 417.391 449.689 417.444C451.276 417.683 452.848 417.93 454.412 418.194C454.603 418.227 454.795 418.25 454.986 418.283C456.16 418.485 457.312 418.729 458.473 418.945C462.138 419.624 465.769 420.336 469.287 421.152C469.29 421.153 469.284 421.195 469.287 421.196C474.223 422.341 478.974 423.598 483.589 424.992C483.666 424.938 483.74 424.871 483.809 424.815C478.516 421.233 473.929 417.664 470.038 414.266C469.786 414.08 469.591 413.958 469.464 413.825C469.426 413.791 469.413 413.725 469.376 413.692C469.348 413.652 469.296 413.592 469.287 413.56C456.735 401.467 448.806 383.81 448.806 364.123C448.806 341.223 459.512 321.08 475.776 309.257C452.796 310.815 429.161 311.64 405.019 311.64C380.893 311.64 357.229 310.813 334.263 309.257V309.257Z" fill="url(#paint28_radial)"/>
<path d="M334.263 309.257C350.526 321.081 361.232 341.223 361.232 364.123C361.232 383.389 353.634 400.7 341.546 412.766C341.443 412.868 341.34 412.973 341.237 413.075C341.211 413.161 341.115 413.283 340.928 413.428C337.808 416.967 332.58 421.023 325.876 425.655C348.908 418.449 376.303 414.222 405.725 414.222C408.577 414.222 411.388 414.277 414.2 414.355C416.794 414.426 419.369 414.484 421.925 414.619C422.13 414.631 422.338 414.653 422.543 414.664C423 414.689 423.455 414.725 423.911 414.752C426.07 414.881 428.227 415.02 430.356 415.193C430.487 415.205 430.621 415.227 430.753 415.237C431.107 415.267 431.459 415.295 431.812 415.326C433.782 415.496 435.741 415.691 437.683 415.899C438.063 415.94 438.452 415.99 438.831 416.032C439.243 416.078 439.656 416.117 440.066 416.164C441.606 416.342 443.137 416.537 444.657 416.738C445.993 416.914 447.309 417.118 448.63 417.312C448.98 417.363 449.34 417.391 449.689 417.444C451.276 417.683 452.848 417.93 454.412 418.194C454.603 418.227 454.795 418.25 454.986 418.283C456.16 418.485 457.312 418.729 458.473 418.945C462.138 419.624 465.769 420.336 469.287 421.152C469.29 421.153 469.284 421.195 469.287 421.196C474.223 422.341 478.974 423.598 483.589 424.992C483.666 424.938 483.74 424.871 483.809 424.815C478.516 421.233 473.929 417.664 470.038 414.266C469.786 414.08 469.591 413.958 469.464 413.825C469.426 413.791 469.413 413.725 469.376 413.692C469.348 413.652 469.296 413.592 469.287 413.56C456.735 401.467 448.806 383.81 448.806 364.123C448.806 341.223 459.512 321.08 475.776 309.257C452.796 310.815 429.161 311.64 405.019 311.64C380.893 311.64 357.229 310.813 334.263 309.257V309.257Z" stroke="#534C72" stroke-width="0.6"/>
</g>
<defs>
<filter id="filter0_f" x="131.935" y="382.049" width="323.101" height="219.993" filterUnits="userSpaceOnUse" color-interpolation-filters="sRGB">
<feFlood flood-opacity="0" result="BackgroundImageFix"/>
<feBlend mode="normal" in="SourceGraphic" in2="BackgroundImageFix" result="shape"/>
<feGaussianBlur stdDeviation="13.6763" result="effect1_foregroundBlur"/>
</filter>
<filter id="filter1_f" x="86.9872" y="39.3781" width="335.622" height="278.088" filterUnits="userSpaceOnUse" color-interpolation-filters="sRGB">
<feFlood flood-opacity="0" result="BackgroundImageFix"/>
<feBlend mode="normal" in="SourceGraphic" in2="BackgroundImageFix" result="shape"/>
<feGaussianBlur stdDeviation="9.47955" result="effect1_foregroundBlur"/>
</filter>
<filter id="filter2_f" x="401.114" y="395.277" width="350.844" height="345.296" filterUnits="userSpaceOnUse" color-interpolation-filters="sRGB">
<feFlood flood-opacity="0" result="BackgroundImageFix"/>
<feBlend mode="normal" in="SourceGraphic" in2="BackgroundImageFix" result="shape"/>
<feGaussianBlur stdDeviation="10.6935" result="effect1_foregroundBlur"/>
</filter>
<radialGradient id="paint0_radial" cx="0" cy="0" r="1" gradientUnits="userSpaceOnUse" gradientTransform="translate(701.541 698.256) rotate(-152.52) scale(564.845 348.964)">
<stop stop-color="#DFF0F9"/>
<stop offset="0.405829" stop-color="#EAF0FD"/>
<stop offset="0.602621" stop-color="#D3D7FD"/>
<stop offset="0.843367" stop-color="#A8CBFF"/>
<stop offset="1" stop-color="#8DB4F9"/>
</radialGradient>
<radialGradient id="paint1_radial" cx="0" cy="0" r="1" gradientUnits="userSpaceOnUse" gradientTransform="translate(437.809 384.087) rotate(-149.682) scale(72.855 60.2792)">
<stop stop-color="#DDAF99"/>
<stop offset="0.829767" stop-color="#C7527C"/>
<stop offset="1" stop-color="#A95482"/>
</radialGradient>
<linearGradient id="paint2_linear" x1="143.659" y1="157.748" x2="689.98" y2="133.738" gradientUnits="userSpaceOnUse">
<stop stop-color="#DFF4FE"/>
<stop offset="0.239322" stop-color="#E1EEFA"/>
<stop offset="0.647874" stop-color="#B4C2F8"/>
<stop offset="1" stop-color="#8EB5FF"/>
</linearGradient>
<radialGradient id="paint3_radial" cx="0" cy="0" r="1" gradientUnits="userSpaceOnUse" gradientTransform="translate(477.442 294.564) rotate(-52.1392) scale(198.651 84.9478)">
<stop stop-color="#645FE9"/>
<stop offset="0.5" stop-color="#B7AFFF"/>
<stop offset="1" stop-color="#EEDAFA" stop-opacity="0"/>
</radialGradient>
<radialGradient id="paint4_radial" cx="0" cy="0" r="1" gradientUnits="userSpaceOnUse" gradientTransform="translate(413.298 1009.85) scale(345.914 364.04)">
<stop stop-color="#FF5555"/>
<stop offset="1" stop-color="#FF5555" stop-opacity="0"/>
</radialGradient>
<radialGradient id="paint5_radial" cx="0" cy="0" r="1" gradientUnits="userSpaceOnUse" gradientTransform="translate(343.201 432.6) rotate(133.341) scale(195.071 52.9747)">
<stop stop-color="#7877ED"/>
<stop offset="1" stop-color="#B9BAFC"/>
</radialGradient>
<radialGradient id="paint6_radial" cx="0" cy="0" r="1" gradientUnits="userSpaceOnUse" gradientTransform="translate(471.775 314.805) scale(535.224 594.099)">
<stop stop-color="#FF5555"/>
<stop offset="1" stop-color="#FF5555" stop-opacity="0"/>
</radialGradient>
<linearGradient id="paint7_linear" x1="379.034" y1="271.899" x2="234.639" y2="104.974" gradientUnits="userSpaceOnUse">
<stop stop-color="white"/>
<stop offset="1" stop-color="#E4F7FD"/>
</linearGradient>
<radialGradient id="paint8_radial" cx="0" cy="0" r="1" gradientUnits="userSpaceOnUse" gradientTransform="translate(404.843 367.456) scale(345.914 364.04)">
<stop stop-color="#FF5555"/>
<stop offset="1" stop-color="#FF5555" stop-opacity="0"/>
</radialGradient>
<linearGradient id="paint9_linear" x1="466.618" y1="447.528" x2="646.856" y2="644.151" gradientUnits="userSpaceOnUse">
<stop stop-color="white"/>
<stop offset="1" stop-color="#DDF1FA"/>
</linearGradient>
<radialGradient id="paint10_radial" cx="0" cy="0" r="1" gradientUnits="userSpaceOnUse" gradientTransform="translate(404.842 367.455) scale(345.914 364.04)">
<stop stop-color="#FF5555"/>
<stop offset="1" stop-color="#FF5555" stop-opacity="0"/>
</radialGradient>
<radialGradient id="paint11_radial" cx="0" cy="0" r="1" gradientUnits="userSpaceOnUse" gradientTransform="translate(400.78 363.681) scale(342.195 337.021)">
<stop stop-color="#534C72"/>
<stop offset="0.5" stop-color="#5B6589"/>
<stop offset="1" stop-color="#637EA1"/>
</radialGradient>
<radialGradient id="paint12_radial" cx="0" cy="0" r="1" gradientUnits="userSpaceOnUse" gradientTransform="translate(400.781 363.68) scale(342.195 337.021)">
<stop stop-color="#534C72"/>
<stop offset="0.5" stop-color="#5B6589"/>
<stop offset="1" stop-color="#637EA1"/>
</radialGradient>
<radialGradient id="paint13_radial" cx="0" cy="0" r="1" gradientUnits="userSpaceOnUse" gradientTransform="translate(400.781 363.68) scale(342.195 337.021)">
<stop stop-color="#534C72"/>
<stop offset="0.5" stop-color="#5B6589"/>
<stop offset="1" stop-color="#637EA1"/>
</radialGradient>
<radialGradient id="paint14_radial" cx="0" cy="0" r="1" gradientUnits="userSpaceOnUse" gradientTransform="translate(400.78 363.681) scale(342.195 337.021)">
<stop stop-color="#534C72"/>
<stop offset="0.5" stop-color="#5B6589"/>
<stop offset="1" stop-color="#637EA1"/>
</radialGradient>
<radialGradient id="paint15_radial" cx="0" cy="0" r="1" gradientUnits="userSpaceOnUse" gradientTransform="translate(400.78 363.68) scale(342.195 337.021)">
<stop stop-color="#534C72"/>
<stop offset="0.5" stop-color="#5B6589"/>
<stop offset="1" stop-color="#637EA1"/>
</radialGradient>
<radialGradient id="paint16_radial" cx="0" cy="0" r="1" gradientUnits="userSpaceOnUse" gradientTransform="translate(400.781 363.681) scale(342.195 337.021)">
<stop stop-color="#534C72"/>
<stop offset="0.5" stop-color="#5B6589"/>
<stop offset="1" stop-color="#637EA1"/>
</radialGradient>
<radialGradient id="paint17_radial" cx="0" cy="0" r="1" gradientUnits="userSpaceOnUse" gradientTransform="translate(400.781 363.681) scale(342.195 337.021)">
<stop stop-color="#534C72"/>
<stop offset="0.5" stop-color="#5B6589"/>
<stop offset="1" stop-color="#637EA1"/>
</radialGradient>
<radialGradient id="paint18_radial" cx="0" cy="0" r="1" gradientUnits="userSpaceOnUse" gradientTransform="translate(400.781 363.68) scale(342.195 337.021)">
<stop stop-color="#534C72"/>
<stop offset="0.5" stop-color="#5B6589"/>
<stop offset="1" stop-color="#637EA1"/>
</radialGradient>
<radialGradient id="paint19_radial" cx="0" cy="0" r="1" gradientUnits="userSpaceOnUse" gradientTransform="translate(400.781 363.681) scale(342.195 337.021)">
<stop stop-color="#534C72"/>
<stop offset="0.5" stop-color="#5B6589"/>
<stop offset="1" stop-color="#637EA1"/>
</radialGradient>
<radialGradient id="paint20_radial" cx="0" cy="0" r="1" gradientUnits="userSpaceOnUse" gradientTransform="translate(400.781 363.681) scale(342.195 337.021)">
<stop stop-color="#534C72"/>
<stop offset="0.5" stop-color="#5B6589"/>
<stop offset="1" stop-color="#637EA1"/>
</radialGradient>
<radialGradient id="paint21_radial" cx="0" cy="0" r="1" gradientUnits="userSpaceOnUse" gradientTransform="translate(400.781 363.68) scale(342.195 337.021)">
<stop stop-color="#534C72"/>
<stop offset="0.342854" stop-color="#554D73" stop-opacity="0.635294"/>
<stop offset="1" stop-color="#637EA1"/>
</radialGradient>
<radialGradient id="paint22_radial" cx="0" cy="0" r="1" gradientUnits="userSpaceOnUse" gradientTransform="translate(400.781 363.68) scale(342.195 337.021)">
<stop stop-color="#534C72"/>
<stop offset="0.5" stop-color="#5B6589"/>
<stop offset="1" stop-color="#637EA1"/>
</radialGradient>
<radialGradient id="paint23_radial" cx="0" cy="0" r="1" gradientUnits="userSpaceOnUse" gradientTransform="translate(400.781 363.68) scale(342.195 337.021)">
<stop stop-color="#534C72"/>
<stop offset="0.5" stop-color="#5B6589"/>
<stop offset="1" stop-color="#637EA1"/>
</radialGradient>
<radialGradient id="paint24_radial" cx="0" cy="0" r="1" gradientUnits="userSpaceOnUse" gradientTransform="translate(400.782 363.68) scale(342.195 337.021)">
<stop stop-color="#534C72"/>
<stop offset="0.5" stop-color="#5B6589"/>
<stop offset="1" stop-color="#637EA1"/>
</radialGradient>
<radialGradient id="paint25_radial" cx="0" cy="0" r="1" gradientUnits="userSpaceOnUse" gradientTransform="translate(400.781 363.68) scale(342.195 337.021)">
<stop stop-color="#534C72"/>
<stop offset="0.5" stop-color="#5B6589"/>
<stop offset="1" stop-color="#637EA1"/>
</radialGradient>
<radialGradient id="paint26_radial" cx="0" cy="0" r="1" gradientUnits="userSpaceOnUse" gradientTransform="translate(400.781 363.68) scale(342.194 337.021)">
<stop stop-color="#534C72"/>
<stop offset="0.5" stop-color="#5B6589"/>
<stop offset="1" stop-color="#637EA1"/>
</radialGradient>
<radialGradient id="paint27_radial" cx="0" cy="0" r="1" gradientUnits="userSpaceOnUse" gradientTransform="translate(400.781 363.681) scale(342.195 337.021)">
<stop stop-color="#534C72"/>
<stop offset="0.5" stop-color="#5B6589"/>
<stop offset="1" stop-color="#637EA1"/>
</radialGradient>
<radialGradient id="paint28_radial" cx="0" cy="0" r="1" gradientUnits="userSpaceOnUse" gradientTransform="translate(437.809 384.088) rotate(-149.682) scale(72.855 60.2792)">
<stop stop-color="#DDAF99"/>
<stop offset="0.829767" stop-color="#C7527C"/>
<stop offset="1" stop-color="#A95482"/>
</radialGradient>
</defs>
</svg>
